# Blender v2.78 (sub 0) OBJ File: ''
# www.blender.org
mtllib 1.mtl
o Text
v 0.672490 0.343244 0.395551
v 0.640253 0.343244 0.924240
v 0.463857 0.343244 0.920377
v 0.492853 0.343244 0.558646
v 0.387531 0.343244 0.600826
v 0.380836 0.343244 0.453895
v 0.510962 0.343244 0.388358
v 0.672490 0.183244 0.395551
v 0.640253 0.183244 0.924240
v 0.463857 0.183244 0.920377
v 0.492853 0.183244 0.558646
v 0.387531 0.183244 0.600826
v 0.380836 0.183244 0.453895
v 0.510962 0.183244 0.388358
v 0.672490 0.183244 0.395551
v 0.704290 0.213244 0.366937
v 0.640253 0.183244 0.924240
v 0.668441 0.213244 0.954864
v 0.463857 0.183244 0.920377
v 0.431412 0.213244 0.949673
v 0.492853 0.183244 0.558646
v 0.459082 0.213244 0.604487
v 0.387531 0.183244 0.600826
v 0.359484 0.213244 0.644375
v 0.380836 0.183244 0.453895
v 0.349983 0.213244 0.435844
v 0.510962 0.183244 0.388358
v 0.504468 0.213244 0.358039
v 0.704290 0.213244 0.366937
v 0.704290 0.313244 0.366937
v 0.668441 0.213244 0.954864
v 0.668441 0.313244 0.954864
v 0.431412 0.213244 0.949673
v 0.431412 0.313244 0.949673
v 0.459082 0.213244 0.604487
v 0.459082 0.313244 0.604487
v 0.359484 0.213244 0.644375
v 0.359484 0.313244 0.644375
v 0.349983 0.213244 0.435844
v 0.349983 0.313244 0.435844
v 0.504468 0.213244 0.358039
v 0.504468 0.313244 0.358039
v 0.704290 0.313244 0.366937
v 0.672490 0.343244 0.395551
v 0.668441 0.313244 0.954864
v 0.640253 0.343244 0.924240
v 0.431412 0.313244 0.949673
v 0.463857 0.343244 0.920377
v 0.459082 0.313244 0.604487
v 0.492853 0.343244 0.558646
v 0.359484 0.313244 0.644375
v 0.387531 0.343244 0.600826
v 0.349983 0.313244 0.435844
v 0.380836 0.343244 0.453895
v 0.504468 0.313244 0.358039
v 0.510962 0.343244 0.388358
vn 0.0000 1.0000 0.0000
vn 0.0000 -1.0000 0.0000
vn 0.4268 -0.8187 -0.3840
vn 0.3960 -0.8112 0.4302
vn -0.4199 -0.8245 0.3792
vn -0.2765 -0.8847 0.3753
vn -0.2713 -0.8653 0.4213
vn -0.5549 -0.7660 -0.3246
vn -0.1456 -0.7186 -0.6799
vn 0.7434 0.0000 -0.6689
vn 0.6772 0.0000 0.7357
vn -0.7422 0.0000 0.6702
vn -0.5931 0.0000 0.8051
vn -0.5414 0.0000 0.8407
vn -0.8631 0.0000 -0.5050
vn -0.2094 0.0000 -0.9778
vn 0.4268 0.8187 -0.3840
vn 0.3960 0.8112 0.4302
vn -0.4199 0.8245 0.3792
vn -0.2765 0.8847 0.3753
vn -0.2713 0.8653 0.4213
vn -0.5549 0.7660 -0.3246
vn -0.1456 0.7186 -0.6799
usemtl Material.001
s off
f 7//1 2//1 1//1
f 6//1 4//1 7//1
f 4//1 2//1 7//1
f 5//1 4//1 6//1
f 3//1 2//1 4//1
f 9//2 14//2 8//2
f 11//2 13//2 14//2
f 9//2 11//2 14//2
f 11//2 12//2 13//2
f 9//2 10//2 11//2
s 1
f 16//3 18//4 17//4 15//3
f 18//4 20//5 19//5 17//4
f 20//5 22//6 21//6 19//5
f 22//6 24//7 23//7 21//6
f 24//7 26//8 25//8 23//7
f 26//8 28//9 27//9 25//8
f 28//9 16//3 15//3 27//9
f 30//10 32//11 31//11 29//10
f 32//11 34//12 33//12 31//11
f 34//12 36//13 35//13 33//12
f 36//13 38//14 37//14 35//13
f 38//14 40//15 39//15 37//14
f 40//15 42//16 41//16 39//15
f 42//16 30//10 29//10 41//16
f 44//17 46//18 45//18 43//17
f 46//18 48//19 47//19 45//18
f 48//19 50//20 49//20 47//19
f 50//20 52//21 51//21 49//20
f 52//21 54//22 53//22 51//21
f 54//22 56//23 55//23 53//22
f 56//23 44//17 43//17 55//23
