# Blender v2.78 (sub 0) OBJ File: ''
# www.blender.org
mtllib 2.mtl
o Text
v 0.709527 0.343244 0.435043
v 0.716263 0.343244 0.633680
v 0.544440 0.343244 0.769715
v 0.722033 0.343244 0.768487
v 0.712437 0.343244 0.927271
v 0.340646 0.343244 0.907091
v 0.348424 0.343244 0.762836
v 0.551735 0.343244 0.593545
v 0.552891 0.343244 0.536749
v 0.375468 0.343244 0.535403
v 0.381633 0.343244 0.376393
v 0.674149 0.343244 0.396522
v 0.709527 0.183244 0.435043
v 0.716263 0.183244 0.633680
v 0.544440 0.183244 0.769715
v 0.722033 0.183244 0.768487
v 0.712437 0.183244 0.927271
v 0.340646 0.183244 0.907091
v 0.348424 0.183244 0.762836
v 0.551735 0.183244 0.593545
v 0.552891 0.183244 0.536749
v 0.375468 0.183244 0.535403
v 0.381633 0.183244 0.376393
v 0.674149 0.183244 0.396522
v 0.709527 0.183244 0.435043
v 0.739134 0.213244 0.422929
v 0.716263 0.183244 0.633680
v 0.746759 0.213244 0.647800
v 0.544440 0.183244 0.769715
v 0.631424 0.213244 0.739113
v 0.722033 0.183244 0.768487
v 0.753915 0.213244 0.738265
v 0.712437 0.183244 0.927271
v 0.740583 0.213244 0.958842
v 0.340646 0.183244 0.907091
v 0.309075 0.213244 0.935422
v 0.348424 0.183244 0.762836
v 0.319172 0.213244 0.748155
v 0.551735 0.183244 0.593545
v 0.522020 0.213244 0.579250
v 0.552891 0.183244 0.536749
v 0.522279 0.213244 0.566517
v 0.375468 0.183244 0.535403
v 0.344291 0.213244 0.565168
v 0.381633 0.183244 0.376393
v 0.352853 0.213244 0.344342
v 0.674149 0.183244 0.396522
v 0.688149 0.213244 0.367414
v 0.739134 0.213244 0.422929
v 0.739134 0.313244 0.422929
v 0.746759 0.213244 0.647800
v 0.746759 0.313244 0.647800
v 0.631424 0.213244 0.739113
v 0.631424 0.313244 0.739113
v 0.753915 0.213244 0.738265
v 0.753915 0.313244 0.738265
v 0.740583 0.213244 0.958842
v 0.740583 0.313244 0.958842
v 0.309075 0.213244 0.935422
v 0.309075 0.313244 0.935422
v 0.319172 0.213244 0.748155
v 0.319172 0.313244 0.748155
v 0.522020 0.213244 0.579250
v 0.522020 0.313244 0.579250
v 0.522279 0.213244 0.566517
v 0.522279 0.313244 0.566517
v 0.344291 0.213244 0.565168
v 0.344291 0.313244 0.565168
v 0.352853 0.213244 0.344342
v 0.352853 0.313244 0.344342
v 0.688149 0.213244 0.367414
v 0.688149 0.313244 0.367414
v 0.739134 0.313244 0.422929
v 0.709527 0.343244 0.435043
v 0.746759 0.313244 0.647800
v 0.716263 0.343244 0.633680
v 0.631424 0.313244 0.739113
v 0.544440 0.343244 0.769715
v 0.753915 0.313244 0.738265
v 0.722033 0.343244 0.768487
v 0.740583 0.313244 0.958842
v 0.712437 0.343244 0.927271
v 0.309075 0.313244 0.935422
v 0.340646 0.343244 0.907091
v 0.319172 0.313244 0.748155
v 0.348424 0.343244 0.762836
v 0.522020 0.313244 0.579250
v 0.551735 0.343244 0.593545
v 0.522279 0.313244 0.566517
v 0.552891 0.343244 0.536749
v 0.344291 0.313244 0.565168
v 0.375468 0.343244 0.535403
v 0.352853 0.313244 0.344342
v 0.381633 0.343244 0.376393
v 0.688149 0.313244 0.367414
v 0.674149 0.343244 0.396522
vn 0.0000 1.0000 0.0000
vn 0.0000 -1.0000 0.0000
vn 0.6331 -0.7294 -0.2590
vn 0.6043 -0.7460 0.2798
vn 0.2918 -0.9509 -0.1027
vn 0.4093 -0.8258 -0.3880
vn 0.3850 -0.8156 0.4318
vn -0.4297 -0.8164 0.3856
vn -0.6039 -0.7372 -0.3031
vn -0.6064 -0.7397 -0.2917
vn -0.4121 -0.8182 0.4008
vn -0.4132 -0.8208 0.3945
vn -0.3818 -0.8206 -0.4252
vn 0.2950 -0.7327 -0.6133
vn 0.9255 0.0000 -0.3787
vn 0.9074 0.0000 0.4201
vn 0.9433 0.0000 -0.3319
vn 0.7257 0.0000 -0.6879
vn 0.6654 0.0000 0.7464
vn -0.7443 0.0000 0.6679
vn -0.8937 0.0000 -0.4486
vn -0.9011 0.0000 -0.4335
vn -0.7169 0.0000 0.6971
vn -0.7233 0.0000 0.6905
vn -0.6681 0.0000 -0.7440
vn 0.4334 0.0000 -0.9012
vn 0.6331 0.7294 -0.2590
vn 0.6043 0.7460 0.2798
vn 0.2918 0.9509 -0.1027
vn 0.4093 0.8258 -0.3880
vn 0.3850 0.8156 0.4318
vn -0.4297 0.8164 0.3856
vn -0.6039 0.7372 -0.3031
vn -0.6064 0.7397 -0.2917
vn -0.4121 0.8182 0.4008
vn -0.4132 0.8208 0.3945
vn -0.3818 0.8206 -0.4252
vn 0.2950 0.7327 -0.6133
usemtl Material.001
s off
f 10//1 12//1 11//1
f 10//1 1//1 12//1
f 10//1 9//1 1//1
f 9//1 2//1 1//1
f 8//1 2//1 9//1
f 7//1 2//1 8//1
f 7//1 3//1 2//1
f 3//1 5//1 4//1
f 7//1 5//1 3//1
f 6//1 5//1 7//1
f 24//2 22//2 23//2
f 13//2 22//2 24//2
f 21//2 22//2 13//2
f 14//2 21//2 13//2
f 14//2 20//2 21//2
f 14//2 19//2 20//2
f 15//2 19//2 14//2
f 17//2 15//2 16//2
f 17//2 19//2 15//2
f 17//2 18//2 19//2
s 1
f 26//3 28//4 27//4 25//3
f 28//4 30//5 29//5 27//4
f 30//5 32//6 31//6 29//5
f 32//6 34//7 33//7 31//6
f 34//7 36//8 35//8 33//7
f 36//8 38//9 37//9 35//8
f 38//9 40//10 39//10 37//9
f 40//10 42//11 41//11 39//10
f 42//11 44//12 43//12 41//11
f 44//12 46//13 45//13 43//12
f 46//13 48//14 47//14 45//13
f 48//14 26//3 25//3 47//14
f 50//15 52//16 51//16 49//15
f 52//16 54//17 53//17 51//16
f 54//17 56//18 55//18 53//17
f 56//18 58//19 57//19 55//18
f 58//19 60//20 59//20 57//19
f 60//20 62//21 61//21 59//20
f 62//21 64//22 63//22 61//21
f 64//22 66//23 65//23 63//22
f 66//23 68//24 67//24 65//23
f 68//24 70//25 69//25 67//24
f 70//25 72//26 71//26 69//25
f 72//26 50//15 49//15 71//26
f 74//27 76//28 75//28 73//27
f 76//28 78//29 77//29 75//28
f 78//29 80//30 79//30 77//29
f 80//30 82//31 81//31 79//30
f 82//31 84//32 83//32 81//31
f 84//32 86//33 85//33 83//32
f 86//33 88//34 87//34 85//33
f 88//34 90//35 89//35 87//34
f 90//35 92//36 91//36 89//35
f 92//36 94//37 93//37 91//36
f 94//37 96//38 95//38 93//37
f 96//38 74//27 73//27 95//38
