# Blender v2.78 (sub 0) OBJ File: ''
# www.blender.org
mtllib 3.mtl
o Text
v 0.711359 0.343244 0.400696
v 0.724840 0.343244 0.523085
v 0.607153 0.343244 0.622185
v 0.708436 0.343244 0.680559
v 0.707255 0.343244 0.920897
v 0.366995 0.343244 0.919167
v 0.356755 0.343244 0.773726
v 0.552422 0.343244 0.772826
v 0.551127 0.343244 0.727070
v 0.432874 0.343244 0.690845
v 0.440863 0.343244 0.595721
v 0.532040 0.343244 0.532790
v 0.368740 0.343244 0.526343
v 0.376518 0.343244 0.382088
v 0.711359 0.183244 0.400696
v 0.724840 0.183244 0.523085
v 0.607153 0.183244 0.622185
v 0.708436 0.183244 0.680559
v 0.707255 0.183244 0.920897
v 0.366995 0.183244 0.919167
v 0.356755 0.183244 0.773726
v 0.552422 0.183244 0.772826
v 0.551127 0.183244 0.727070
v 0.432874 0.183244 0.690845
v 0.440863 0.183244 0.595721
v 0.532040 0.183244 0.532790
v 0.368740 0.183244 0.526343
v 0.376518 0.183244 0.382088
v 0.711359 0.183244 0.400696
v 0.738396 0.213244 0.372152
v 0.724840 0.183244 0.523085
v 0.756413 0.213244 0.535718
v 0.607153 0.183244 0.622185
v 0.659215 0.213244 0.617565
v 0.708436 0.183244 0.680559
v 0.738522 0.213244 0.663272
v 0.707255 0.183244 0.920897
v 0.737108 0.213244 0.951050
v 0.366995 0.183244 0.919167
v 0.339022 0.213244 0.949025
v 0.356755 0.183244 0.773726
v 0.324579 0.213244 0.743873
v 0.552422 0.183244 0.772826
v 0.521565 0.213244 0.742967
v 0.551127 0.183244 0.727070
v 0.521748 0.213244 0.749446
v 0.432874 0.183244 0.690845
v 0.400954 0.213244 0.712443
v 0.440863 0.183244 0.595721
v 0.412154 0.213244 0.579084
v 0.532040 0.183244 0.532790
v 0.440939 0.213244 0.559217
v 0.368740 0.183244 0.526343
v 0.337145 0.213244 0.555119
v 0.376518 0.183244 0.382088
v 0.348179 0.213244 0.350467
v 0.738396 0.213244 0.372152
v 0.738396 0.313244 0.372152
v 0.756413 0.213244 0.535718
v 0.756413 0.313244 0.535718
v 0.659215 0.213244 0.617565
v 0.659215 0.313244 0.617565
v 0.738522 0.213244 0.663272
v 0.738522 0.313244 0.663272
v 0.737108 0.213244 0.951050
v 0.737108 0.313244 0.951050
v 0.339022 0.213244 0.949025
v 0.339022 0.313244 0.949025
v 0.324579 0.213244 0.743873
v 0.324579 0.313244 0.743873
v 0.521565 0.213244 0.742967
v 0.521565 0.313244 0.742967
v 0.521748 0.213244 0.749446
v 0.521748 0.313244 0.749446
v 0.400954 0.213244 0.712443
v 0.400954 0.313244 0.712443
v 0.412154 0.213244 0.579084
v 0.412154 0.313244 0.579084
v 0.440939 0.213244 0.559217
v 0.440939 0.313244 0.559217
v 0.337145 0.213244 0.555119
v 0.337145 0.313244 0.555119
v 0.348179 0.213244 0.350467
v 0.348179 0.313244 0.350467
v 0.738396 0.313244 0.372152
v 0.711359 0.343244 0.400696
v 0.756413 0.313244 0.535718
v 0.724840 0.343244 0.523085
v 0.659215 0.313244 0.617565
v 0.607153 0.343244 0.622185
v 0.738522 0.313244 0.663272
v 0.708436 0.343244 0.680559
v 0.737108 0.313244 0.951050
v 0.707255 0.343244 0.920897
v 0.339022 0.313244 0.949025
v 0.366995 0.343244 0.919167
v 0.324579 0.313244 0.743873
v 0.356755 0.343244 0.773726
v 0.521565 0.313244 0.742967
v 0.552422 0.343244 0.772826
v 0.521748 0.313244 0.749446
v 0.551127 0.343244 0.727070
v 0.400954 0.313244 0.712443
v 0.432874 0.343244 0.690845
v 0.412154 0.313244 0.579084
v 0.440863 0.343244 0.595721
v 0.440939 0.313244 0.559217
v 0.532040 0.343244 0.532790
v 0.337145 0.313244 0.555119
v 0.368740 0.343244 0.526343
v 0.348179 0.313244 0.350467
v 0.376518 0.343244 0.382088
vn 0.0000 1.0000 -0.0000
vn 0.0000 -1.0000 0.0000
vn 0.4172 -0.7950 -0.4404
vn 0.6142 -0.7499 0.2457
vn 0.4958 -0.8673 -0.0440
vn 0.5671 -0.7564 -0.3258
vn 0.4062 -0.8165 0.4103
vn -0.4042 -0.8064 0.4315
vn -0.4136 -0.8256 -0.3838
vn -0.2423 -0.7982 -0.5515
vn -0.4116 -0.8197 -0.3983
vn -0.4158 -0.7691 0.4853
vn -0.5016 -0.7761 0.3820
vn -0.5087 -0.7891 0.3442
vn -0.5802 -0.7418 -0.3363
vn -0.2896 -0.9534 0.0840
vn -0.4248 -0.8184 0.3869
vn -0.3851 -0.8167 -0.4297
vn 0.6877 0.0000 -0.7260
vn 0.9284 0.0000 0.3715
vn 0.9961 0.0000 -0.0884
vn 0.8671 0.0000 -0.4982
vn 0.7035 0.0000 0.7106
vn -0.6837 0.0000 0.7298
vn -0.7331 0.0000 -0.6801
vn 0.6954 0.0000 -0.7186
vn 0.6059 0.0000 0.7955
vn -0.8282 0.0000 0.5604
vn -0.8652 0.0000 -0.5014
vn -0.9604 0.0000 0.2786
vn -0.7393 0.0000 0.6733
vn -0.6674 0.0000 -0.7447
vn 0.4172 0.7950 -0.4404
vn 0.6142 0.7499 0.2457
vn 0.4958 0.8673 -0.0440
vn 0.5671 0.7564 -0.3258
vn 0.4062 0.8165 0.4103
vn -0.4042 0.8064 0.4315
vn -0.4136 0.8256 -0.3838
vn -0.4116 0.8197 -0.3983
vn -0.2423 0.7982 -0.5515
vn -0.5016 0.7761 0.3820
vn -0.4158 0.7691 0.4853
vn -0.5087 0.7891 0.3442
vn -0.5802 0.7418 -0.3363
vn -0.2896 0.9534 0.0840
vn -0.4248 0.8184 0.3869
vn -0.3851 0.8167 -0.4297
usemtl Material.001
s off
f 14//1 2//1 1//1
f 13//1 2//1 14//1
f 13//1 12//1 2//1
f 12//1 3//1 2//1
f 11//1 3//1 12//1
f 10//1 3//1 11//1
f 10//1 4//1 3//1
f 10//1 9//1 4//1
f 9//1 5//1 4//1
f 8//1 5//1 9//1
f 7//1 5//1 8//1
f 6//1 5//1 7//1
f 16//2 28//2 15//2
f 16//2 27//2 28//2
f 26//2 27//2 16//2
f 17//2 26//2 16//2
f 17//2 25//2 26//2
f 17//2 24//2 25//2
f 18//2 24//2 17//2
f 23//2 24//2 18//2
f 19//2 23//2 18//2
f 19//2 22//2 23//2
f 19//2 21//2 22//2
f 19//2 20//2 21//2
s 1
f 30//3 32//4 31//4 29//3
f 32//4 34//5 33//5 31//4
f 34//5 36//6 35//6 33//5
f 36//6 38//7 37//7 35//6
f 38//7 40//8 39//8 37//7
f 40//8 42//9 41//9 39//8
f 42//9 44//10 43//11 41//9
f 44//10 46//12 45//13 43//11
f 46//12 48//14 47//14 45//13
f 48//14 50//15 49//15 47//14
f 50//15 52//16 51//16 49//15
f 52//16 54//17 53//17 51//16
f 54//17 56//18 55//18 53//17
f 56//18 30//3 29//3 55//18
f 58//19 60//20 59//20 57//19
f 60//20 62//21 61//21 59//20
f 62//21 64//22 63//22 61//21
f 64//22 66//23 65//23 63//22
f 66//23 68//24 67//24 65//23
f 68//24 70//25 69//25 67//24
f 70//25 72//26 71//26 69//25
f 72//26 74//27 73//27 71//26
f 74//27 76//28 75//28 73//27
f 76//28 78//29 77//29 75//28
f 78//29 80//30 79//30 77//29
f 80//30 82//31 81//31 79//30
f 82//31 84//32 83//32 81//31
f 84//32 58//19 57//19 83//32
f 86//33 88//34 87//34 85//33
f 88//34 90//35 89//35 87//34
f 90//35 92//36 91//36 89//35
f 92//36 94//37 93//37 91//36
f 94//37 96//38 95//38 93//37
f 96//38 98//39 97//39 95//38
f 98//39 100//40 99//41 97//39
f 100//40 102//42 101//43 99//41
f 102//42 104//44 103//44 101//43
f 104//44 106//45 105//45 103//44
f 106//45 108//46 107//46 105//45
f 108//46 110//47 109//47 107//46
f 110//47 112//48 111//48 109//47
f 112//48 86//33 85//33 111//48
